<svg width="22" height="16" viewBox="0 0 22 16" fill="none" xmlns="http://www.w3.org/2000/svg">
<path d="M11.2535 3.65222L9.82048 3.74483C8.89389 2.69526 6.29726 0.0507812 3.7114 0.0507812C3.7114 0.0507812 1.58885 3.09657 3.6683 7.16105C3.07571 8.0151 2.70938 8.45756 2.63396 9.47625L0.554504 9.77466L0.780767 10.7831L2.67706 10.5155L2.8279 11.2461L1.13632 12.2133L1.64272 13.1291L3.20501 12.2133C4.44406 14.7241 7.57941 16 11.2535 16C14.9275 16 18.0629 14.7241 19.302 12.2133L20.8642 13.1291L21.3706 12.2133L19.6791 11.2461L19.8299 10.5155L21.7262 10.7831L21.9525 9.77466L19.873 9.47625C19.7976 8.45756 19.4312 8.0151 18.8387 7.16105C20.9181 3.09657 18.7956 0.0507812 18.7956 0.0507812C16.2097 0.0507812 13.6131 2.69526 12.6865 3.74483L11.2535 3.65222ZM8.02116 6.73916C8.30691 6.73916 8.58097 6.84757 8.78302 7.04054C8.98508 7.23352 9.0986 7.49524 9.0986 7.76814C9.0986 8.04105 8.98508 8.30277 8.78302 8.49574C8.58097 8.68872 8.30691 8.79713 8.02116 8.79713C7.73541 8.79713 7.46135 8.68872 7.2593 8.49574C7.05724 8.30277 6.94372 8.04105 6.94372 7.76814C6.94372 7.49524 7.05724 7.23352 7.2593 7.04054C7.46135 6.84757 7.73541 6.73916 8.02116 6.73916ZM14.4858 6.73916C14.7716 6.73916 15.0456 6.84757 15.2477 7.04054C15.4497 7.23352 15.5632 7.49524 15.5632 7.76814C15.5632 8.04105 15.4497 8.30277 15.2477 8.49574C15.0456 8.68872 14.7716 8.79713 14.4858 8.79713C14.2 8.79713 13.926 8.68872 13.7239 8.49574C13.5219 8.30277 13.4084 8.04105 13.4084 7.76814C13.4084 7.49524 13.5219 7.23352 13.7239 7.04054C13.926 6.84757 14.2 6.73916 14.4858 6.73916ZM10.176 9.82611H12.3309L11.5767 11.2564C11.7922 11.9149 12.3956 12.3986 13.139 12.3986C13.5676 12.3986 13.9787 12.2359 14.2818 11.9465C14.5849 11.657 14.7552 11.2644 14.7552 10.8551H15.2939C15.2939 11.4009 15.0668 11.9243 14.6627 12.3103C14.2586 12.6962 13.7105 12.9131 13.139 12.9131C12.3309 12.9131 11.6306 12.4912 11.2535 11.8841C10.8764 12.4912 10.176 12.9131 9.36796 12.9131C8.79645 12.9131 8.24835 12.6962 7.84423 12.3103C7.44011 11.9243 7.21308 11.4009 7.21308 10.8551H7.7518C7.7518 11.2644 7.92207 11.657 8.22516 11.9465C8.52825 12.2359 8.93933 12.3986 9.36796 12.3986C10.1114 12.3986 10.7148 11.9149 10.9302 11.2564L10.176 9.82611Z" fill="black"/>
</svg>
