<svg width="87" height="39" viewBox="0 0 87 39" fill="none" xmlns="http://www.w3.org/2000/svg">
<path d="M49.6925 31.7334C49.8109 31.9076 49.8788 32.11 49.8891 32.3192C49.8995 32.5283 49.8518 32.7363 49.7511 32.9209C49.6504 33.1055 49.5006 33.2598 49.3176 33.3673C49.1346 33.4748 48.9253 33.5315 48.712 33.5314H29.8686C29.657 33.5315 29.4493 33.4756 29.2673 33.3696C29.0853 33.2636 28.9358 33.1114 28.8344 32.9291C28.733 32.7468 28.6836 32.541 28.6912 32.3334C28.6988 32.1257 28.7633 31.924 28.8778 31.7493L34.1776 23.6555C34.2842 23.4926 34.4308 23.3586 34.6039 23.2658C34.777 23.173 34.9711 23.1244 35.1683 23.1244C35.3656 23.1244 35.5596 23.173 35.7327 23.2658C35.9058 23.3586 36.0524 23.4926 36.1591 23.6555L37.5959 25.8495L40.6653 21.3271C40.7728 21.1685 40.9186 21.0385 41.0896 20.9485C41.2607 20.8585 41.4517 20.8115 41.6458 20.8115C41.8398 20.8115 42.0308 20.8585 42.2019 20.9485C42.3729 21.0385 42.5187 21.1685 42.6262 21.3271L49.6925 31.7334ZM58.1338 12.7188V31.2189C58.1338 31.8322 57.8856 32.4204 57.4439 32.8541C57.0022 33.2878 56.403 33.5314 55.7783 33.5314H54.6006C54.2883 33.5314 53.9887 33.4096 53.7679 33.1927C53.547 32.9759 53.4229 32.6818 53.4229 32.3751C53.4229 32.0685 53.547 31.7744 53.7679 31.5575C53.9887 31.3407 54.2883 31.2189 54.6006 31.2189H55.7783V13.875H48.712C48.3997 13.875 48.1001 13.7532 47.8793 13.5364C47.6584 13.3195 47.5343 13.0255 47.5343 12.7188V5.78126H34.5795V19.6563C34.5795 19.963 34.4554 20.2571 34.2345 20.4739C34.0137 20.6908 33.7141 20.8126 33.4017 20.8126C33.0894 20.8126 32.7898 20.6908 32.569 20.4739C32.3481 20.2571 32.224 19.963 32.224 19.6563V5.78126C32.224 5.16795 32.4722 4.57975 32.9139 4.14607C33.3557 3.71239 33.9548 3.46875 34.5795 3.46875H48.712C48.8668 3.46863 49.02 3.49844 49.1629 3.55647C49.3059 3.6145 49.4358 3.69961 49.5453 3.80696L57.7893 11.9007C57.8986 12.0082 57.9853 12.1358 58.0444 12.2761C58.1035 12.4165 58.1339 12.5669 58.1338 12.7188ZM49.8898 11.5625H54.1133L49.8898 7.41592V11.5625Z" fill="#626262"/>
<g clip-path="url(#clip0_789_615)">
<path d="M83.5619 21.3039C83.64 21.0514 83.6399 20.7961 83.5756 20.5665L83.5763 20.5715C83.5659 20.5354 83.5544 20.4996 83.5417 20.4644L83.5386 20.4562C83.5262 20.4236 83.5124 20.3916 83.4972 20.3604L83.4903 20.3463L83.4713 20.3055L78.0707 9.23466C78.0555 9.20314 78.0386 9.17265 78.02 9.14333L78.0041 9.1144L77.9621 9.05347L77.9407 9.02411C77.9251 9.0049 77.9091 8.98602 77.8928 8.96749L77.8721 8.94318C77.8495 8.9195 77.8261 8.89678 77.8018 8.87504L77.7715 8.84906L77.7225 8.81028L77.6864 8.78498L77.6288 8.74847L77.5992 8.73117C77.5697 8.71545 77.5396 8.70083 77.509 8.68734L67.4667 5.6934C66.8469 5.50863 66.1781 5.8947 65.9687 6.55688L58.4947 30.7211C58.2881 31.389 58.6261 32.08 59.2479 32.2654L77.2769 37.6405C77.8998 37.8261 78.5714 37.4348 78.7776 36.7681L83.5512 21.3346L83.5619 21.3039ZM77.2359 13.0974L80.0855 18.9489L75.8194 17.6771L77.2359 13.0974ZM61.1209 30.1855L67.8478 8.43686L75.5123 10.7219L73.1942 18.2166C72.9876 18.8844 73.3256 19.5755 73.9474 19.7609L80.9373 21.8448L76.9023 34.8905L61.1209 30.1855Z" fill="#626262"/>
<path d="M74.2593 28.8237L66.7146 26.5744C66.4157 26.4853 66.0897 26.5271 65.8083 26.6907C65.5268 26.8543 65.3131 27.1263 65.2139 27.4468C65.1148 27.7672 65.1385 28.11 65.2797 28.3996C65.421 28.6892 65.6683 28.9019 65.9671 28.9911L66.0002 29.0009L65.9981 29.0003L73.5428 31.2496C73.8417 31.3387 74.1677 31.2969 74.4491 31.1333C74.7305 30.9697 74.9443 30.6977 75.0434 30.3773C75.1426 30.0568 75.1189 29.714 74.9776 29.4244C74.8364 29.1348 74.5891 28.9221 74.2902 28.833L74.2572 28.8231L74.2593 28.8237ZM75.7539 23.9915L68.2092 21.7422C67.9103 21.6531 67.5843 21.695 67.3029 21.8586C67.0215 22.0222 66.8077 22.2941 66.7085 22.6146C66.6094 22.935 66.6331 23.2778 66.7743 23.5674C66.9156 23.857 67.1629 24.0698 67.4617 24.1589L67.4948 24.1687L67.4927 24.1681L75.0374 26.4174C75.3363 26.5065 75.6623 26.4647 75.9437 26.3011C76.2251 26.1375 76.4389 25.8655 76.5381 25.5451C76.6372 25.2246 76.6135 24.8819 76.4722 24.5923C76.331 24.3026 76.0837 24.0899 75.7848 24.0008L75.7518 23.9909L75.7539 23.9915Z" fill="#626262"/>
</g>
<g clip-path="url(#clip1_789_615)">
<path d="M23.5947 14.6672C23.4956 14.4219 23.3336 14.2223 23.1375 14.082L23.1413 14.0855C23.1102 14.0636 23.0785 14.0427 23.0463 14.0229L23.0386 14.0184C23.0082 14.0004 22.9771 13.9839 22.9454 13.9688L22.931 13.9619L22.8903 13.9417L11.6407 8.58508C11.6088 8.56972 11.5762 8.55623 11.5431 8.54466L11.5123 8.53174L11.4408 8.50982L11.4054 8.49993C11.381 8.49446 11.3565 8.48946 11.332 8.48495L11.3004 8.47858C11.2677 8.47388 11.2349 8.47045 11.2021 8.46829L11.1619 8.46652L11.0991 8.46611L11.0547 8.46845L10.9865 8.47508L10.9524 8.47967C10.9193 8.48544 10.8865 8.49241 10.854 8.50057L1.09887 12.3011C0.496823 12.5356 0.21863 13.2467 0.47509 13.8927L9.96259 37.3659C10.2248 38.0147 10.9277 38.3485 11.5317 38.1132L29.0452 31.2902C29.6502 31.0544 29.9273 30.3376 29.6655 29.6899L23.6059 14.6977L23.5947 14.6672ZM13.4389 12.1172L19.381 14.9515L15.237 16.5659L13.4389 12.1172ZM11.677 35.3406L3.13794 14.2139L10.5832 11.3133L13.5258 18.5937C13.788 19.2424 14.4909 19.5763 15.095 19.3409L21.885 16.6956L27.0071 29.3682L11.677 35.3406Z" fill="#626262"/>
<path d="M21.0896 26.2394L13.7608 29.0947C13.4704 29.2078 13.242 29.4399 13.1256 29.74C13.0093 30.0401 13.0146 30.3836 13.1405 30.6949C13.2663 31.0062 13.5023 31.2598 13.7966 31.4C14.0908 31.5401 14.4193 31.5553 14.7096 31.4422L14.7417 31.4297L14.7397 31.4305L22.0686 28.5752C22.3589 28.4621 22.5874 28.23 22.7037 27.9299C22.82 27.6297 22.8147 27.2863 22.6889 26.975C22.5631 26.6637 22.327 26.41 22.0328 26.2699C21.7385 26.1298 21.4101 26.1146 21.1197 26.2277L21.0876 26.2402L21.0896 26.2394ZM19.1924 21.5454L11.8635 24.4007C11.5732 24.5138 11.3447 24.7459 11.2284 25.046C11.1121 25.3461 11.1174 25.6896 11.2432 26.0009C11.369 26.3122 11.605 26.5658 11.8993 26.706C12.1936 26.8461 12.522 26.8613 12.8124 26.7482L12.8445 26.7357L12.8425 26.7365L20.1713 23.8812C20.4617 23.7681 20.6901 23.536 20.8065 23.2359C20.9228 22.9358 20.9175 22.5923 20.7916 22.281C20.6658 21.9697 20.4298 21.716 20.1355 21.5759C19.8413 21.4358 19.5128 21.4206 19.2225 21.5337L19.1904 21.5462L19.1924 21.5454Z" fill="#626262"/>
</g>
<defs>
<clipPath id="clip0_789_615">
<rect width="21.5575" height="27.8233" fill="white" transform="matrix(0.958317 0.285706 -0.29549 0.955346 66.3411 5.34961)"/>
</clipPath>
<clipPath id="clip1_789_615">
<rect width="21.5373" height="27.8501" fill="white" transform="matrix(0.931784 -0.363012 0.374732 0.927133 0 12.7207)"/>
</clipPath>
</defs>
</svg>
