<svg width="64" height="64" viewBox="0 0 64 64" fill="none" xmlns="http://www.w3.org/2000/svg">
<path d="M31.9326 41.8815C36.3286 41.8815 39.8924 38.3178 39.8924 33.9217C39.8924 29.5256 36.3286 25.9619 31.9326 25.9619C27.5365 25.9619 23.9728 29.5256 23.9728 33.9217C23.9728 38.3178 27.5365 41.8815 31.9326 41.8815Z" fill="#FFBF1B"/>
<path d="M53.822 18.0028H46.484C46.1109 18.0028 45.6482 17.7615 45.2876 17.3809L42.0614 12.2891C42.0103 12.2083 41.9534 12.1314 41.891 12.059C40.7766 10.7594 39.2705 10.043 37.6536 10.043H26.2114C24.5946 10.043 23.0884 10.7594 21.9741 12.059C21.9117 12.1314 21.8547 12.2083 21.8037 12.2891L18.5775 17.3884C18.3014 17.6893 17.9133 18.0102 17.5054 18.0102V17.0153C17.5054 16.4875 17.2957 15.9813 16.9226 15.6081C16.5494 15.235 16.0432 15.0253 15.5154 15.0253H12.5305C12.0028 15.0253 11.4966 15.235 11.1234 15.6081C10.7502 15.9813 10.5406 16.4875 10.5406 17.0153V18.0102H10.0431C8.46029 18.0119 6.94279 18.6414 5.82359 19.7606C4.70438 20.8798 4.07489 22.3973 4.07324 23.9801V47.852C4.07489 49.4348 4.70438 50.9523 5.82359 52.0715C6.94279 53.1907 8.46029 53.8202 10.0431 53.8218H53.822C55.4048 53.8202 56.9223 53.1907 58.0415 52.0715C59.1607 50.9523 59.7902 49.4348 59.7918 47.852V23.9726C59.7902 22.3898 59.1607 20.8723 58.0415 19.7531C56.9223 18.6339 55.4048 18.0044 53.822 18.0028ZM31.9325 45.862C29.5711 45.862 27.2627 45.1618 25.2992 43.8498C23.3357 42.5379 21.8054 40.6732 20.9017 38.4915C19.998 36.3098 19.7616 33.9091 20.2223 31.593C20.6829 29.277 21.8201 27.1495 23.4899 25.4797C25.1597 23.8099 27.2871 22.6728 29.6032 22.2121C31.9193 21.7514 34.32 21.9878 36.5016 22.8915C38.6833 23.7952 40.5481 25.3255 41.86 27.289C43.172 29.2525 43.8722 31.5609 43.8722 33.9224C43.8686 37.0878 42.6095 40.1227 40.3712 42.361C38.1328 44.5993 35.098 45.8584 31.9325 45.862Z" fill="#FFBF1B"/>
</svg>
