<svg width="405" height="181" viewBox="0 0 405 181" fill="none" xmlns="http://www.w3.org/2000/svg">
<path d="M32.983 167.812C29.1059 167.812 25.6007 167.05 22.4674 165.523C19.3871 163.996 16.944 161.799 15.1383 158.93C13.3326 156.061 12.4032 152.672 12.3501 148.764H24.2996C24.459 151.39 25.2556 153.466 26.6895 154.991C28.1766 156.518 30.1946 157.282 32.744 157.282C35.3464 157.282 37.3909 156.578 38.878 155.175C40.3652 153.709 41.1086 151.818 41.1086 149.497C41.1086 147.605 40.6042 146.048 39.595 144.827C38.5858 143.606 37.3112 142.659 35.7711 141.988C34.284 141.255 32.2128 140.462 29.5573 139.607C25.946 138.386 22.9984 137.196 20.7148 136.036C18.4842 134.815 16.5458 133.014 14.8993 130.633C13.306 128.19 12.5094 124.955 12.5094 120.926C12.5094 117.141 13.3326 113.844 14.979 111.035C16.6253 108.227 18.9356 106.09 21.9097 104.625C24.8839 103.099 28.2828 102.336 32.1067 102.336C37.8424 102.336 42.4894 103.954 46.0477 107.189C49.659 110.364 51.6506 114.82 52.0225 120.559H39.7543C39.6482 118.361 38.8248 116.56 37.2847 115.156C35.7976 113.691 33.806 112.958 31.3099 112.958C29.1326 112.958 27.38 113.6 26.0522 114.882C24.7776 116.164 24.1403 118.026 24.1403 120.468C24.1403 122.177 24.6183 123.612 25.5742 124.772C26.5833 125.871 27.8048 126.786 29.2388 127.519C30.7259 128.191 32.7971 128.984 35.4524 129.9C39.0638 131.121 42.0114 132.342 44.2951 133.563C46.5788 134.784 48.5437 136.615 50.1902 139.057C51.8366 141.5 52.6598 144.705 52.6598 148.672C52.6598 152.092 51.8896 155.267 50.3496 158.197C48.8094 161.127 46.5521 163.477 43.5781 165.249C40.6042 166.958 37.0722 167.812 32.983 167.812ZM103.356 140.706C103.356 142.537 103.249 144.186 103.037 145.651H70.7733C71.0388 149.315 72.1541 152.184 74.1191 154.26C76.084 156.335 78.5006 157.372 81.3685 157.372C85.5111 157.372 88.4585 155.328 90.2111 151.237H102.24C100.966 156.121 98.5227 160.151 94.9113 163.324C91.2997 166.438 86.8652 167.995 81.6075 167.995C77.3586 167.995 73.5348 166.927 70.136 164.79C66.7901 162.593 64.1613 159.51 62.2494 155.541C60.3904 151.573 59.4611 146.994 59.4611 141.805C59.4611 136.555 60.3904 131.945 62.2494 127.977C64.108 124.009 66.7104 120.956 70.0563 118.819C73.4022 116.683 77.2526 115.614 81.6075 115.614C85.803 115.614 89.5471 116.652 92.84 118.728C96.1859 120.804 98.7615 123.764 100.567 127.611C102.426 131.396 103.356 135.761 103.356 140.706ZM91.8044 137.043C91.7512 133.746 90.7156 131.121 88.6975 129.167C86.6792 127.153 84.2096 126.145 81.2889 126.145C78.5271 126.145 76.1904 127.122 74.2785 129.076C72.4195 130.968 71.2778 133.624 70.8529 137.043H91.8044ZM108.628 141.622C108.628 136.493 109.505 131.945 111.257 127.977C113.063 124.009 115.479 120.956 118.507 118.819C121.587 116.683 125.012 115.614 128.783 115.614C132.075 115.614 134.944 116.377 137.387 117.904C139.882 119.43 141.874 121.353 143.361 123.673V116.438H154.594V167.171H143.361V159.753C141.928 162.135 139.937 164.118 137.387 165.706C134.891 167.232 131.997 167.995 128.704 167.995C124.986 167.995 121.587 166.897 118.507 164.698C115.479 162.501 113.063 159.418 111.257 155.449C109.505 151.42 108.628 146.811 108.628 141.622ZM143.361 141.805C143.361 138.691 142.831 136.036 141.768 133.838C140.705 131.579 139.272 129.87 137.467 128.709C135.661 127.489 133.722 126.878 131.651 126.878C129.579 126.878 127.668 127.458 125.915 128.618C124.163 129.778 122.729 131.487 121.613 133.746C120.551 135.944 120.02 138.569 120.02 141.622C120.02 144.674 120.551 147.36 121.613 149.68C122.729 151.939 124.163 153.679 125.915 154.9C127.721 156.121 129.632 156.731 131.651 156.731C133.722 156.731 135.661 156.151 137.467 154.991C139.272 153.771 140.705 152.061 141.768 149.864C142.831 147.605 143.361 144.918 143.361 141.805ZM176.639 124.314C178.074 121.628 179.932 119.521 182.217 117.995C184.552 116.469 187.208 115.706 190.182 115.706V129.167H187.235C183.729 129.167 181.074 130.114 179.268 132.006C177.515 133.899 176.639 137.196 176.639 141.896V167.171H165.486V116.438H176.639V124.314ZM194.827 141.805C194.827 136.555 195.756 131.976 197.614 128.068C199.473 124.1 202.05 121.048 205.342 118.911C208.634 116.713 212.406 115.614 216.654 115.614C222.125 115.614 226.639 117.201 230.197 120.376C233.809 123.49 236.225 127.885 237.446 133.563H225.417C224.78 131.365 223.692 129.656 222.152 128.435C220.664 127.153 218.805 126.512 216.574 126.512C213.389 126.512 210.866 127.855 209.007 130.541C207.147 133.166 206.219 136.921 206.219 141.805C206.219 146.628 207.147 150.383 209.007 153.068C210.866 155.694 213.389 157.006 216.574 157.006C221.089 157.006 224.036 154.687 225.417 150.046H237.446C236.225 155.541 233.809 159.906 230.197 163.142C226.586 166.378 222.072 167.995 216.654 167.995C212.406 167.995 208.634 166.927 205.342 164.79C202.05 162.593 199.473 159.54 197.614 155.633C195.756 151.665 194.827 147.055 194.827 141.805ZM270.47 115.706C273.818 115.706 276.793 116.56 279.395 118.27C281.997 119.918 284.013 122.391 285.449 125.688C286.935 128.923 287.679 132.83 287.679 137.409V167.171H276.526V139.149C276.526 135.12 275.649 132.037 273.897 129.9C272.145 127.702 269.755 126.603 266.727 126.603C263.647 126.603 261.204 127.702 259.399 129.9C257.646 132.037 256.77 135.12 256.77 139.149V167.171H245.617V99.4053H256.77V122.757C258.204 120.559 260.116 118.85 262.506 117.629C264.896 116.347 267.552 115.706 270.47 115.706Z" fill="white"/>
<path d="M301.958 27.7855C299.363 41.4317 300.502 53.1987 303.875 63.2945C311.917 73.7136 322.831 81.0101 334.166 88.0645C330.328 83.7426 326.689 79.4678 323.527 75.0971H342.015C343.363 73.2785 344.619 71.4507 345.771 69.6129H319.87C318.616 67.5485 317.488 65.4518 316.51 63.3034C315.997 62.1747 315.518 61.0248 315.077 59.8552H350.715C351.403 58.0688 351.989 56.2545 352.454 54.3711H313.366C312.491 50.8024 312.015 46.9971 312.042 42.7976H353.676C353.631 41.0522 353.497 39.2267 353.257 37.304H312.353C312.657 34.3422 313.186 31.1807 313.983 27.7852L301.958 27.7855ZM356.716 27.7855C359.261 38.5956 359.154 46.9898 357.344 54.3714H357.304C356.488 58.2862 355.234 61.92 353.66 65.3851C349.676 74.1401 343.472 81.877 336.653 89.6053C339.884 91.6025 343.133 93.5984 346.349 95.6579C353.123 87.9788 359.73 79.7566 364.353 69.5945C369.539 58.1875 371.913 44.3728 368.756 27.7852L356.716 27.7855ZM324.018 102.27C318.864 108.495 314.021 115.283 310.347 123.308C304.942 135.123 302.462 149.708 305.42 167.171H316.985C315.71 160.67 315.344 154.598 315.71 148.977C315.828 146.785 316.06 144.69 316.408 142.676H316.448C316.765 140.823 317.173 138.992 317.667 137.192C317.672 137.171 317.677 137.149 317.683 137.128C318.432 134.41 319.38 131.772 320.519 129.241C324.31 120.81 329.608 114.175 334.84 108.167C331.263 106.188 327.631 104.256 324.018 102.27ZM336.083 108.864C339.743 113.134 343.149 117.432 346.014 121.942H330.348C329.132 123.697 327.98 125.52 326.919 127.425H349.16C349.527 128.144 349.877 128.875 350.214 129.608C351.326 132.04 352.278 134.553 353.04 137.192H322.659C322.104 138.947 321.642 140.778 321.271 142.677H354.301C354.917 146.249 355.194 150.076 355.044 154.251H320.297C320.332 156.025 320.444 157.854 320.645 159.734H354.625C354.354 162.101 353.955 164.575 353.422 167.171H365.288C367.703 152.904 366.489 140.56 363.014 130.076C355.804 120.73 346.214 114.531 336.083 108.864Z" fill="white"/>
<path d="M14.5959 67.5451C14.5959 61.1533 15.7454 55.4682 18.0445 50.49C20.397 45.4502 23.7118 41.5476 27.9891 38.7818C32.2662 35.9547 37.185 34.5411 42.7455 34.5411C49.8028 34.5411 55.7375 36.7229 60.5494 41.0866C65.3613 45.3888 68.4622 51.2582 69.8524 58.6949H52.9306C51.9148 56.2365 50.4979 54.3619 48.6802 53.0713C46.9157 51.7806 44.8573 51.1352 42.5048 51.1352C38.8692 51.1352 35.9553 52.6411 33.7633 55.6527C31.6246 58.6027 30.5554 62.5669 30.5554 67.5451C30.5554 72.5849 31.6246 76.6105 33.7633 79.6221C35.9553 82.5721 38.8692 84.0473 42.5048 84.0473C44.8573 84.0473 46.9157 83.4019 48.6802 82.1111C50.4979 80.8206 51.9148 78.946 52.9306 76.4875H69.8524C68.4622 83.9243 65.3613 89.8244 60.5494 94.1881C55.7375 98.4903 49.8028 100.641 42.7455 100.641C37.185 100.641 32.2662 99.2585 27.9891 96.4928C23.7118 93.6656 20.397 89.763 18.0445 84.7847C15.7454 79.7449 14.5959 73.9985 14.5959 67.5451ZM165.243 84.7847V100.18H158.426C146.931 100.18 141.184 93.6349 141.184 80.544V63.4888H135.65V48.4618H141.184V35.924H156.983V48.4618H165.163V63.4888H156.983V80.8206C156.983 82.2341 157.25 83.2482 157.785 83.8628C158.373 84.4773 159.335 84.7847 160.671 84.7847H165.243ZM208.541 66.8076C211.856 67.6681 214.476 69.5733 216.402 72.5233C218.379 75.4121 219.368 78.7309 219.368 82.48C219.368 88.0113 217.711 92.3443 214.396 95.4787C211.081 98.6133 206.43 100.18 200.441 100.18H172.453V35.1865H199.559C205.334 35.1865 209.852 36.6615 213.112 39.6115C216.427 42.5616 218.086 46.7102 218.086 52.0571C218.086 55.8678 217.204 59.0636 215.439 61.6449C213.728 64.1648 211.429 65.8857 208.541 66.8076ZM188.171 60.9996H196.112C200.067 60.9996 202.046 59.125 202.046 55.3761C202.046 51.504 200.067 49.5681 196.112 49.5681H188.171V60.9996ZM197.314 85.6144C201.271 85.6144 203.249 83.7091 203.249 79.8986C203.249 77.932 202.714 76.4261 201.645 75.3814C200.628 74.3365 199.158 73.8141 197.234 73.8141H188.171V85.6144H197.314ZM234.197 43.6679C231.416 43.6679 229.171 42.8074 227.46 41.0866C225.803 39.3042 224.974 37.0917 224.974 34.4488C224.974 31.7446 225.803 29.5013 227.46 27.719C229.171 25.9366 231.416 25.0454 234.197 25.0454C236.924 25.0454 239.116 25.9366 240.774 27.719C242.484 29.5013 243.339 31.7446 243.339 34.4488C243.339 37.0917 242.484 39.3042 240.774 41.0866C239.116 42.8074 236.924 43.6679 234.197 43.6679ZM241.976 48.4618V100.18H226.257V48.4618H241.976ZM271.861 100.826C267.37 100.826 263.331 99.7502 259.749 97.5991C256.22 95.448 253.441 92.375 251.408 88.3801C249.377 84.3852 248.362 79.6835 248.362 74.275C248.362 68.928 249.377 64.257 251.408 60.2621C253.494 56.2672 256.3 53.1942 259.829 51.0431C263.411 48.892 267.45 47.8164 271.941 47.8164C276.432 47.8164 280.442 48.892 283.971 51.0431C287.553 53.1942 290.359 56.2672 292.391 60.2621C294.476 64.257 295.518 68.928 295.518 74.275C295.518 79.6221 294.476 84.3238 292.391 88.3801C290.359 92.375 287.553 95.448 283.971 97.5991C280.388 99.7502 276.352 100.826 271.861 100.826ZM271.861 85.1534C274.052 85.1534 275.871 84.2315 277.314 82.3877C278.811 80.4824 279.56 77.7783 279.56 74.275C279.56 70.7718 278.811 68.0983 277.314 66.2545C275.871 64.4107 274.079 63.4888 271.941 63.4888C269.802 63.4888 268.011 64.4107 266.566 66.2545C265.123 68.0983 264.4 70.7718 264.4 74.275C264.4 77.8397 265.096 80.544 266.486 82.3877C267.878 84.2315 269.668 85.1534 271.861 85.1534Z" fill="white"/>
<path fill-rule="evenodd" clip-rule="evenodd" d="M103.124 52.1113C98.4589 52.1113 97.9925 52.6801 95.578 52.6801C93.5669 52.6801 87.5271 47.0166 84.5104 47.0166C81.4907 47.0166 77.9694 49.0569 77.9694 54.945V61.7395C77.9758 63.522 78.537 68.9864 80.7435 67.5261C78.1365 71.07 77.8751 75.2044 77.9095 79.2048C77.2067 79.4368 76.4911 79.7013 75.7945 79.973C73.6385 80.8209 71.3499 81.9008 70.3191 82.669C69.7925 83.0602 69.4225 83.6758 69.2906 84.3806C69.1588 85.0854 69.2759 85.8214 69.6161 86.4267C69.9563 87.0321 70.4921 87.4573 71.105 87.6088C71.7181 87.7607 72.3582 87.626 72.8848 87.235C73.3768 86.8689 75.1577 85.9666 77.3233 85.1152L78.0421 84.8432C78.1871 86.4123 78.5495 87.8506 79.0884 89.1552L79.0128 89.2025C77.7206 89.9853 76.5227 90.8874 75.7597 91.46L75.4037 91.7279C74.8771 92.1191 74.507 92.735 74.3752 93.4395C74.2434 94.1443 74.3605 94.8803 74.7006 95.4856C75.0409 96.0913 75.5766 96.5162 76.1896 96.668C76.8026 96.8196 77.4427 96.6849 77.9694 96.2939L78.3825 95.9821C79.1547 95.4023 80.1446 94.6595 81.2225 94.0072C81.4749 93.8514 81.7176 93.7137 81.9508 93.5867C87.4042 99.4679 97.1982 101.37 103.124 101.37C109.05 101.37 118.844 99.4679 124.298 93.5867C124.531 93.7137 124.771 93.8514 125.026 94.0072C126.104 94.6595 127.094 95.4023 127.866 95.9821L128.279 96.2939C128.806 96.6849 129.447 96.8196 130.059 96.668C130.672 96.5162 131.207 96.0913 131.548 95.4856C131.888 94.8803 132.006 94.1443 131.874 93.4395C131.741 92.735 131.372 92.1191 130.845 91.7279L130.489 91.46C129.435 90.6499 128.35 89.8967 127.236 89.2025L127.16 89.1552C127.699 87.8506 128.062 86.4123 128.207 84.8432L128.925 85.1152C131.091 85.9666 132.872 86.8689 133.366 87.235C133.893 87.6039 134.525 87.7223 135.126 87.564C135.727 87.4057 136.25 86.9838 136.584 86.3883C136.918 85.7924 137.037 85.0702 136.916 84.3755C136.793 83.6807 136.439 83.0682 135.929 82.669C134.899 81.9008 132.61 80.8209 130.458 79.973C129.756 79.6984 129.049 79.4411 128.339 79.2014C128.377 75.201 128.112 71.07 125.502 67.5261C127.709 68.9864 128.276 63.522 128.279 61.7358V54.945C128.279 49.0569 124.758 47.0166 121.738 47.0166C118.722 47.0166 112.682 52.6801 110.674 52.6801C108.256 52.6801 107.79 52.1113 103.124 52.1113ZM100.996 85.4267C101.633 85.1766 102.387 85.0644 103.124 85.0644C103.862 85.0644 104.615 85.1766 105.255 85.4267C105.57 85.55 105.949 85.7454 106.289 86.057C106.523 86.2595 106.713 86.5196 106.848 86.8182C106.982 87.1166 107.056 87.4461 107.064 87.782C107.064 88.6153 106.626 89.1951 106.289 89.5068C105.952 89.8184 105.567 90.0142 105.255 90.1373C104.566 90.3878 103.847 90.5102 103.124 90.4996C102.403 90.5105 101.684 90.3881 100.996 90.1373C100.622 89.9979 100.271 89.7845 99.9594 89.5068C99.7261 89.3046 99.5352 89.0442 99.401 88.7459C99.2668 88.4472 99.1925 88.1177 99.1839 87.782C99.1839 86.9485 99.622 86.369 99.9594 86.057C100.297 85.7454 100.684 85.55 100.996 85.4267ZM109.965 74.1936C110.396 73.3674 111.244 72.3818 112.518 72.3818C113.791 72.3818 114.643 73.3674 115.071 74.1936C115.519 75.0596 115.733 76.1033 115.733 77.1395C115.733 78.1723 115.519 79.2159 115.071 80.0782C114.643 80.9078 113.791 81.8937 112.518 81.8937C111.244 81.8937 110.396 80.9078 109.965 80.0819C109.519 79.1855 109.29 78.1683 109.303 77.1357C109.303 76.1033 109.517 75.0596 109.965 74.197V74.1936ZM91.1773 74.1936C91.6092 73.3674 92.4571 72.3818 93.7307 72.3818C95.0043 72.3818 95.8552 73.3674 96.284 74.1936C96.7315 75.0596 96.9459 76.1033 96.9459 77.1395C96.9459 78.1723 96.7315 79.2159 96.284 80.0782C95.8552 80.9078 95.0043 81.8937 93.7307 81.8937C92.4571 81.8937 91.6092 80.9078 91.1773 80.0819C90.7319 79.1855 90.5033 78.1683 90.5153 77.1357C90.5153 76.1033 90.7297 75.0596 91.1773 74.197V74.1936Z" fill="white"/>
</svg>
