<svg width="29" height="31" viewBox="0 0 29 31" fill="none" xmlns="http://www.w3.org/2000/svg">
<path d="M25.5865 17.0177C25.6487 16.5333 25.6797 16.0328 25.6797 15.5C25.6797 14.9833 25.6487 14.4667 25.571 13.9823L28.7231 11.4313C28.8589 11.3148 28.9517 11.1531 28.9857 10.9735C29.0197 10.7939 28.9927 10.6076 28.9094 10.4464L25.9282 5.08594C25.8404 4.92378 25.7002 4.79915 25.5326 4.73414C25.3649 4.66912 25.1805 4.66792 25.012 4.73073L21.301 6.28073C20.5246 5.66719 19.7017 5.15052 18.7856 4.76302L18.2266 0.661984C18.1991 0.477163 18.1087 0.308724 17.972 0.187258C17.8352 0.0657911 17.6611 -0.000648263 17.4813 4.76851e-06H11.5187C11.1461 4.76851e-06 10.8511 0.274484 10.789 0.661984L10.23 4.76302C9.31386 5.15052 8.47538 5.68334 7.71454 6.28073L4.00349 4.73073C3.66189 4.60157 3.2737 4.73073 3.08738 5.08594L0.121646 10.4464C-0.0646823 10.7854 -0.00257299 11.2052 0.307975 11.4313L3.46003 13.9823C3.3824 14.4667 3.32029 14.9995 3.32029 15.5C3.32029 16.0005 3.35134 16.5333 3.42898 17.0177L0.27692 19.5688C0.141093 19.6852 0.0482849 19.847 0.0143092 20.0265C-0.0196664 20.2061 0.00729209 20.3924 0.0905915 20.5536L3.07185 25.9141C3.25818 26.2693 3.64636 26.3823 3.98796 26.2693L7.69901 24.7193C8.47538 25.3328 9.29833 25.8495 10.2144 26.237L10.7734 30.338C10.8511 30.7255 11.1461 31 11.5187 31H17.4813C17.8539 31 18.1645 30.7255 18.211 30.338L18.77 26.237C19.6861 25.8495 20.5246 25.3328 21.2855 24.7193L24.9965 26.2693C25.3381 26.3984 25.7263 26.2693 25.9126 25.9141L28.8939 20.5536C29.0802 20.1984 29.0026 19.7948 28.7076 19.5688L25.5865 17.0177ZM14.5 21.3125C11.4256 21.3125 8.91014 18.6969 8.91014 15.5C8.91014 12.3031 11.4256 9.6875 14.5 9.6875C17.5744 9.6875 20.0899 12.3031 20.0899 15.5C20.0899 18.6969 17.5744 21.3125 14.5 21.3125Z" fill="#C4C2C2"/>
</svg>
