<svg width="28" height="20" viewBox="0 0 28 20" fill="none" xmlns="http://www.w3.org/2000/svg">
<path d="M25.6667 20H2.33333C1.04465 20 0 18.8807 0 17.5V2.5C0 1.11927 1.04465 0 2.33333 0H25.6667C26.9553 0 28 1.11927 28 2.5V17.5C28 18.8807 26.9553 20 25.6667 20ZM6.22222 6.04167V3.95833C6.22222 3.61318 5.96103 3.33333 5.63889 3.33333H3.69444C3.3723 3.33333 3.11111 3.61318 3.11111 3.95833V6.04167C3.11111 6.38682 3.3723 6.66667 3.69444 6.66667H5.63889C5.96103 6.66667 6.22222 6.38682 6.22222 6.04167ZM10.8889 6.04167V3.95833C10.8889 3.61318 10.6277 3.33333 10.3056 3.33333H8.36111C8.03897 3.33333 7.77778 3.61318 7.77778 3.95833V6.04167C7.77778 6.38682 8.03897 6.66667 8.36111 6.66667H10.3056C10.6277 6.66667 10.8889 6.38682 10.8889 6.04167ZM15.5556 6.04167V3.95833C15.5556 3.61318 15.2944 3.33333 14.9722 3.33333H13.0278C12.7056 3.33333 12.4444 3.61318 12.4444 3.95833V6.04167C12.4444 6.38682 12.7056 6.66667 13.0278 6.66667H14.9722C15.2944 6.66667 15.5556 6.38682 15.5556 6.04167ZM20.2222 6.04167V3.95833C20.2222 3.61318 19.961 3.33333 19.6389 3.33333H17.6944C17.3723 3.33333 17.1111 3.61318 17.1111 3.95833V6.04167C17.1111 6.38682 17.3723 6.66667 17.6944 6.66667H19.6389C19.961 6.66667 20.2222 6.38682 20.2222 6.04167ZM24.8889 6.04167V3.95833C24.8889 3.61318 24.6277 3.33333 24.3056 3.33333H22.3611C22.039 3.33333 21.7778 3.61318 21.7778 3.95833V6.04167C21.7778 6.38682 22.039 6.66667 22.3611 6.66667H24.3056C24.6277 6.66667 24.8889 6.38682 24.8889 6.04167ZM8.55556 11.0417V8.95833C8.55556 8.61318 8.29437 8.33333 7.97222 8.33333H6.02778C5.70563 8.33333 5.44444 8.61318 5.44444 8.95833V11.0417C5.44444 11.3868 5.70563 11.6667 6.02778 11.6667H7.97222C8.29437 11.6667 8.55556 11.3868 8.55556 11.0417ZM13.2222 11.0417V8.95833C13.2222 8.61318 12.961 8.33333 12.6389 8.33333H10.6944C10.3723 8.33333 10.1111 8.61318 10.1111 8.95833V11.0417C10.1111 11.3868 10.3723 11.6667 10.6944 11.6667H12.6389C12.961 11.6667 13.2222 11.3868 13.2222 11.0417ZM17.8889 11.0417V8.95833C17.8889 8.61318 17.6277 8.33333 17.3056 8.33333H15.3611C15.039 8.33333 14.7778 8.61318 14.7778 8.95833V11.0417C14.7778 11.3868 15.039 11.6667 15.3611 11.6667H17.3056C17.6277 11.6667 17.8889 11.3868 17.8889 11.0417ZM22.5556 11.0417V8.95833C22.5556 8.61318 22.2944 8.33333 21.9722 8.33333H20.0278C19.7056 8.33333 19.4444 8.61318 19.4444 8.95833V11.0417C19.4444 11.3868 19.7056 11.6667 20.0278 11.6667H21.9722C22.2944 11.6667 22.5556 11.3868 22.5556 11.0417ZM6.22222 16.0417V13.9583C6.22222 13.6132 5.96103 13.3333 5.63889 13.3333H3.69444C3.3723 13.3333 3.11111 13.6132 3.11111 13.9583V16.0417C3.11111 16.3868 3.3723 16.6667 3.69444 16.6667H5.63889C5.96103 16.6667 6.22222 16.3868 6.22222 16.0417ZM20.2222 16.0417V13.9583C20.2222 13.6132 19.961 13.3333 19.6389 13.3333H8.36111C8.03897 13.3333 7.77778 13.6132 7.77778 13.9583V16.0417C7.77778 16.3868 8.03897 16.6667 8.36111 16.6667H19.6389C19.961 16.6667 20.2222 16.3868 20.2222 16.0417ZM24.8889 16.0417V13.9583C24.8889 13.6132 24.6277 13.3333 24.3056 13.3333H22.3611C22.039 13.3333 21.7778 13.6132 21.7778 13.9583V16.0417C21.7778 16.3868 22.039 16.6667 22.3611 16.6667H24.3056C24.6277 16.6667 24.8889 16.3868 24.8889 16.0417Z" fill="black"/>
</svg>
