<svg width="31" height="27" viewBox="0 0 31 27" fill="none" xmlns="http://www.w3.org/2000/svg">
<path d="M15.089 7.00451L5.16708 16.1572V26.0356C5.16708 26.2914 5.25779 26.5367 5.41927 26.7175C5.58075 26.8984 5.79976 27 6.02812 27L12.0587 26.9825C12.2863 26.9812 12.5042 26.8791 12.6647 26.6984C12.8253 26.5176 12.9154 26.2731 12.9154 26.0181V20.2492C12.9154 19.9935 13.0061 19.7482 13.1676 19.5673C13.3291 19.3865 13.5481 19.2849 13.7764 19.2849H17.2206C17.449 19.2849 17.668 19.3865 17.8295 19.5673C17.991 19.7482 18.0817 19.9935 18.0817 20.2492V26.0139C18.0813 26.1408 18.1033 26.2665 18.1464 26.3839C18.1896 26.5012 18.2529 26.6079 18.3329 26.6978C18.4129 26.7877 18.5079 26.859 18.6126 26.9076C18.7172 26.9563 18.8294 26.9813 18.9427 26.9813L24.9711 27C25.1995 27 25.4185 26.8984 25.58 26.7175C25.7414 26.5367 25.8321 26.2914 25.8321 26.0356V16.1506L15.9124 7.00451C15.7958 6.89922 15.6505 6.84181 15.5007 6.84181C15.3509 6.84181 15.2056 6.89922 15.089 7.00451ZM30.7616 13.2254L26.2627 9.07193V0.723295C26.2627 0.531465 26.1946 0.347492 26.0735 0.211848C25.9524 0.0762042 25.7882 0 25.6169 0H22.6032C22.432 0 22.2677 0.0762042 22.1466 0.211848C22.0255 0.347492 21.9574 0.531465 21.9574 0.723295V5.09983L17.1394 0.660007C16.677 0.233853 16.0968 0.000851888 15.498 0.000851888C14.8992 0.000851888 14.319 0.233853 13.8566 0.660007L0.234365 13.2254C0.168973 13.286 0.114871 13.3604 0.0751508 13.4443C0.0354308 13.5283 0.0108711 13.6202 0.0028749 13.7148C-0.00512131 13.8094 0.00360275 13.9048 0.0285486 13.9956C0.0534944 14.0865 0.0941732 14.1709 0.14826 14.2441L1.52055 16.1126C1.57449 16.1861 1.64084 16.2469 1.71579 16.2916C1.79075 16.3363 1.87284 16.364 1.95736 16.3731C2.04189 16.3823 2.1272 16.3726 2.2084 16.3448C2.28959 16.3169 2.36509 16.2714 2.43057 16.2108L15.089 4.53325C15.2056 4.42797 15.3509 4.37055 15.5007 4.37055C15.6505 4.37055 15.7958 4.42797 15.9124 4.53325L28.5714 16.2108C28.6367 16.2714 28.7121 16.317 28.7932 16.3449C28.8743 16.3729 28.9595 16.3826 29.0439 16.3737C29.1284 16.3647 29.2104 16.3372 29.2854 16.2927C29.3604 16.2482 29.4268 16.1877 29.4808 16.1144L30.8531 14.2459C30.9071 14.1723 30.9477 14.0874 30.9723 13.9962C30.997 13.905 31.0053 13.8092 30.9968 13.7144C30.9883 13.6195 30.9631 13.5275 30.9228 13.4436C30.8824 13.3597 30.8277 13.2856 30.7616 13.2254Z" fill="#C4C2C2"/>
</svg>
