<svg width="27" height="27" viewBox="0 0 27 27" fill="none" xmlns="http://www.w3.org/2000/svg">
<path d="M13.5 15.1875C17.6924 15.1875 21.0938 11.7861 21.0938 7.59375C21.0938 3.40137 17.6924 0 13.5 0C9.30762 0 5.90625 3.40137 5.90625 7.59375C5.90625 11.7861 9.30762 15.1875 13.5 15.1875ZM20.25 16.875H17.3443C16.1736 17.4129 14.8711 17.7188 13.5 17.7188C12.1289 17.7188 10.8316 17.4129 9.65566 16.875H6.75C3.02168 16.875 0 19.8967 0 23.625V24.4688C0 25.8662 1.13379 27 2.53125 27H24.4688C25.8662 27 27 25.8662 27 24.4688V23.625C27 19.8967 23.9783 16.875 20.25 16.875Z" fill="#C4C2C2"/>
</svg>
