<svg width="31" height="23" viewBox="0 0 31 23" fill="none" xmlns="http://www.w3.org/2000/svg">
<path d="M30.0312 19.1667H3.875V0.958333C3.875 0.428854 3.44148 0 2.90625 0H0.96875C0.433516 0 0 0.428854 0 0.958333V21.0833C0 22.1417 0.867637 23 1.9375 23H30.0312C30.5665 23 31 22.5711 31 22.0417V20.125C31 19.5955 30.5665 19.1667 30.0312 19.1667ZM28.0938 1.91667H20.9456C19.6511 1.91667 19.0026 3.46497 19.9181 4.3706L21.8798 6.31122L17.4375 10.7064L12.9952 6.31182C12.2383 5.56313 11.0117 5.56313 10.2554 6.31182L6.09647 10.4261C5.71805 10.8004 5.71805 11.4072 6.09647 11.7815L7.46603 13.1364C7.84445 13.5107 8.45779 13.5107 8.83621 13.1364L11.625 10.377L16.0673 14.7715C16.8242 15.5202 18.0508 15.5202 18.8071 14.7715L24.6196 9.02151L26.5813 10.9621C27.4968 11.8678 29.0619 11.2263 29.0619 9.9457V2.875C29.0625 2.34552 28.629 1.91667 28.0938 1.91667Z" fill="#C4C2C2"/>
</svg>
